<svg xmlns="http://www.w3.org/2000/svg" version="1.1" xmlns:xlink="http://www.w3.org/1999/xlink" xmlns:svgjs="http://svgjs.dev/svgjs" width="100%" height="100%" viewBox="0 0 1000 600"><rect width="1000" height="600" x="0" y="0" fill="#17242a"/><g><rect width="333.3333333333333" height="333.3333333333333" rx="13.333333333333334" ry="13.333333333333334" y="270.52841475988555" fill="#f07c41" transform="matrix(0.5034106811062942,0,0,0.5034106811062942,0,79.91131233020957)" x="248.30621337890625"/><path d="M345.84766125440956 512.19507714042Q340.8231832049396 512.19507714042 334.40731123407795 510.53313440098L334.40731123407795 510.53313440098Q336.64900144076455 481.0433132337062 336.64900144076455 426.50840148138224L336.64900144076455 426.50840148138224Q336.64900144076455 398.100775586302 335.79870515546963 384.0708868789359Q334.9870587013245 370.00234834042 333.01591731268627 363.8956750187565L333.01591731268627 363.8956750187565Q340.5526343868912 362.1950824481666 348.0507016299464 362.1950824481666L348.0507016299464 362.1950824481666Q354.19602478275965 362.1950824481666 364.2063310505498 363.8956750187565L364.2063310505498 363.8956750187565Q372.55469457889996 383.6457387362884 388.2851758568559 418.1600379530321Q403.9770073036621 452.63568733862604 414.2965122206504 472.9654985234045L414.2965122206504 472.9654985234045Q424.8479161245374 451.5534920664325 439.6121516237491 418.97168440717724Q454.37638712296086 386.4285265790718 464.1161445727027 363.8956750187565L464.1161445727027 363.8956750187565Q469.6817202582694 362.1950824481666 479.6920265260596 362.1950824481666L479.6920265260596 362.1950824481666Q486.648996133018 362.1950824481666 495.26790847941646 363.8956750187565L495.26790847941646 363.8956750187565Q494.14706337607316 377.50041558347516 493.335416921928 401.30871157173283Q492.4851206366331 425.1170075599905 492.4851206366331 447.37931030225747L492.4851206366331 447.37931030225747Q492.4851206366331 499.4019830298465 496.9298512188565 510.53313440098L496.9298512188565 510.53313440098Q489.43178397580135 512.19507714042 481.89506690159635 512.19507714042L481.89506690159635 512.19507714042Q474.6675484765896 512.19507714042 465.5075384940944 510.53313440098L465.5075384940944 510.53313440098Q466.89893241548606 496.61919518706316 467.7105788696312 472.54035038075705Q468.5608751549261 448.461505574451 468.5608751549261 427.04949911747894L468.5608751549261 427.04949911747894Q468.5608751549261 413.1355599035621 467.9811276876796 395.31798774351864L467.9811276876796 395.31798774351864Q446.56912123070754 438.45119930666084 414.83760985674724 510.53313440098L414.83760985674724 510.53313440098Q411.2431755598187 511.92452832237166 408.73093653508374 511.92452832237166L408.73093653508374 511.92452832237166Q406.4892463283971 511.92452832237166 403.16536084951696 510.53313440098L403.16536084951696 510.53313440098Q395.628643775312 492.7155622409365 380.90305810725005 460.44295323087937Q366.1388226080383 428.17034422082224 353.6162773155131 402.54550616852543L353.6162773155131 402.54550616852543Q353.07517967941635 431.4942296997024 353.07517967941635 447.37931030225747L353.07517967941635 447.37931030225747Q353.07517967941635 497.4694914723581 356.1285163402481 510.53313440098L356.1285163402481 510.53313440098Q351.10403829077813 512.19507714042 345.84766125440956 512.19507714042L345.84766125440956 512.19507714042Z " fill="#17242a" transform="matrix(0.5034106811062942,0,0,0.5034106811062942,0,79.91131233020957)"/><path d="M721.8156951251563 511.72082050377475Q713.9904923315366 511.72082050377475 708.4010617646657 504.2682464146134Q702.7777558610258 496.84954766222086 698.7465907855247 485.36580849755853Q694.7154257100239 473.9159446696651 688.617865091619 452.67610851555514L688.617865091619 452.67610851555514Q682.0460497584495 429.505378165617 677.03249991665 414.2614766196051Q672.0528254116194 399.01757507359315 664.9728800269161 384.654432283573L664.9728800269161 384.654432283573Q678.8617681021715 379.50538109469784 694.9864284041752 379.50538109469784L694.9864284041752 379.50538109469784Q696.2059405278561 390.24386285044403 700.3387316136639 409.1463007674989Q704.4715226994715 428.04873868455365 709.3495711941953 446.10429318238556L709.3495711941953 446.10429318238556Q717.4119013451972 471.95117513706805 723.9837166783668 486.8224479786219L723.9837166783668 486.8224479786219Q744.9864254750944 423.40781754721223 750.5758560419654 399.01757507359315L750.5758560419654 399.01757507359315L744.2411680661783 384.654432283573Q757.6558014266686 379.50538109469784 774.2547164434372 379.50538109469784L774.2547164434372 379.50538109469784Q775.7113559245006 390.0067354930616 779.8441470103082 409.0446747571921Q784.010813432885 428.04873868455365 788.6178592334575 446.10429318238556L788.6178592334575 446.10429318238556Q797.4254467933754 473.9159446696651 803.0148773602464 486.8224479786219L803.0148773602464 486.8224479786219Q819.1056623254813 438.31296572553504 825.575851648344 415.9891187948198Q832.046040971207 393.6652718641045 832.046040971207 385.3658143557202L832.046040971207 385.3658143557202Q832.046040971207 383.67204751727445 831.5717862564422 382.2154080362111L831.5717862564422 382.2154080362111Q841.3278832458898 379.50538109469784 853.2520017885481 379.50538109469784L853.2520017885481 379.50538109469784Q844.7154169227813 401.45659932095504 832.1815423182827 438.78722044029985Q819.613792377015 476.11784155964466 811.3143348686308 502.9471082806257L811.3143348686308 502.9471082806257L801.0839831644182 511.72082050377475Q793.2587803707988 511.72082050377475 787.6693498039278 504.40374776168903Q782.0460439002877 497.08667501960326 777.9132528144801 485.5013098446342Q773.7465863919035 473.9159446696651 767.8861531308812 452.67610851555514L767.8861531308812 452.67610851555514Q763.5162346876912 436.1110688355555 758.8753135503496 421.7140507087665L758.8753135503496 421.7140507087665Q749.5934712756668 449.0175721445123 732.0460468293686 502.9471082806257L732.0460468293686 502.9471082806257L721.8156951251563 511.72082050377475ZM885.704574413169 512.1950752185396Q876.93086219002 512.1950752185396 870.9349275819218 505.7248858956767Q864.9728683105927 499.28857190958274 864.9728683105927 489.2614722259838L864.9728683105927 489.2614722259838Q864.9728683105927 459.7560539002585 922.5270654809801 456.0975175292156L922.5270654809801 456.0975175292156Q922.5270654809801 440.0067325639808 917.8861443436388 433.6720445881936Q913.2790985430661 427.33735661240644 900.8129746121053 427.33735661240644L900.8129746121053 427.33735661240644Q893.258774512637 427.33735661240644 885.5690730660933 429.7763808597683Q877.9132469563185 432.21540510713027 871.5446836437625 436.34819619293796L871.5446836437625 436.34819619293796L869.6137894479341 431.70727505559654Q876.1856047811038 420.96879329985035 887.3983412516147 414.2614766196051Q898.6449530588948 407.5541599393598 910.3319442441705 407.5541599393598L910.3319442441705 407.5541599393598Q926.185601852023 407.5541599393598 934.7221867177896 415.9891187948198Q943.2587715835564 424.39020231351077 943.2587715835564 440.2438599213632L943.2587715835564 440.2438599213632Q943.2587715835564 449.0175721445123 942.0392594598754 459.9931812576409L942.0392594598754 459.9931812576409Q941.0568746935769 471.71404777968564 941.0568746935769 477.3373536833256L941.0568746935769 477.3373536833256Q941.0568746935769 486.58532062123953 943.021644226174 491.70049647334577Q944.986413758771 496.84954766222086 950.575844325642 502.9471082806257L950.575844325642 502.9471082806257Q941.5650047451106 510.7384357374762 930.8265229893643 512.1950752185396L930.8265229893643 512.1950752185396Q924.2547076561948 507.82515677534946 921.5446807146816 498.7804418580491L921.5446807146816 498.7804418580491Q912.7709684915326 504.87800247645384 903.2519988594672 508.5365388474967Q893.766904564171 512.1950752185396 885.704574413169 512.1950752185396L885.704574413169 512.1950752185396ZM895.4606714026168 500.5080840332638Q901.5582320210215 499.99995398173 908.4010500483423 497.08667501960326Q915.2099927388945 494.13952072070765 920.596171285152 490.00672963489995L920.596171285152 490.00672963489995L920.596171285152 488.787217511219Q920.596171285152 480.9958900543685 921.3075533572992 473.6788173122827L921.3075533572992 473.6788173122827L922.0528107662153 463.17746291391893Q905.4538957494467 464.15984768021747 896.4430561689153 470.12190695154663Q887.3983412516147 476.11784155964466 887.3983412516147 486.1110659064747L887.3983412516147 486.1110659064747Q887.3983412516147 490.24385699228236 889.6002381415942 494.2750220677833Q891.8021350315737 498.3061871432842 895.4606714026168 500.5080840332638L895.4606714026168 500.5080840332638ZM1000.3387140391787 511.72082050377475Q991.8021291734121 511.72082050377475 988.3807201597517 507.4525280708914Q984.9593111460913 503.1842356380081 984.9593111460913 492.4457538822619L984.9593111460913 492.4457538822619Q984.9593111460913 484.8915537827937 985.467441197625 467.81838405126035L985.467441197625 467.81838405126035Q985.9416959123898 449.28857483866364 985.9416959123898 437.0934536018541L985.9416959123898 437.0934536018541Q985.9416959123898 431.2330203408317 985.467441197625 425.8468417945742L985.467441197625 425.8468417945742Q975.7113442081773 425.8468417945742 972.4254365415925 424.52570366058643Q969.1056535382388 423.1706901898298 969.1056535382388 419.74928117616935L969.1056535382388 419.74928117616935Q984.9593111460913 410.7384415956379 999.1192019154978 395.12191134516786L999.1192019154978 395.12191134516786L1004.9796351765203 395.867168754084Q1005.9620199428189 404.1666262624683 1006.1991473002013 412.94033848561736L1006.1991473002013 412.94033848561736Q1022.5270596228183 412.703211128235 1030.0812597222866 410.9755689530203L1030.0812597222866 410.9755689530203Q1030.0812597222866 416.0907448051265 1029.132750292757 420.02028387032067Q1028.1503655264585 423.91594759874596 1025.948468636479 428.04873868455365L1025.948468636479 428.04873868455365Q1018.8685232517755 425.37258707980936 1005.6910172486675 425.13545972242696L1005.6910172486675 425.13545972242696Q1004.9796351765203 436.1110688355555 1004.9796351765203 448.0690627149827L1004.9796351765203 448.0690627149827Q1004.9796351765203 478.0487357554728 1008.6381715475632 493.66526600594284L1008.6381715475632 493.66526600594284Q1019.850908018074 492.9200085970267 1026.6937260453951 490.98911440119855L1026.6937260453951 490.98911440119855L1028.1503655264585 496.57854496806954Q1023.7465717464993 503.4213629953905 1015.9552442896488 507.55415408119813Q1008.1300414960294 511.72082050377475 1000.3387140391787 511.72082050377475L1000.3387140391787 511.72082050377475ZM1087.161202177909 512.1950752185396Q1067.4118808416313 512.1950752185396 1056.6733990858852 499.39019791988954Q1045.934917330139 486.58532062123953 1045.934917330139 462.9403355565365L1045.934917330139 462.9403355565365Q1045.934917330139 446.84955059130175 1052.405106653002 434.2818006500341Q1058.8752959758647 421.7140507087665 1070.5961624979095 414.63410532406317Q1082.2831536831852 407.5541599393598 1097.1544265247392 407.5541599393598L1097.1544265247392 407.5541599393598Q1114.2275962562724 407.5541599393598 1126.1855901356996 413.41459320038217L1126.1855901356996 413.41459320038217Q1126.1855901356996 417.5812596229588 1123.8820672354134 424.01757360905276Q1121.5446689983582 430.4877629319156 1118.6313900362316 435.12868406925696L1118.6313900362316 435.12868406925696Q1108.875293046784 426.8292265608727 1100.1015808236348 422.32380677060695Q1091.3278686004855 417.8183869803412 1085.4674353394632 417.8183869803412L1085.4674353394632 417.8183869803412Q1078.1503625973776 421.9511780661489 1073.2723141026538 432.5541584748194Q1068.39426560793 443.19101422025886 1068.39426560793 455.8603901718332L1068.39426560793 455.8603901718332Q1068.39426560793 476.8292236317919 1075.1015822881752 485.87393854909226Q1081.8088989684204 494.8847781296238 1097.4254292188905 494.8847781296238L1097.4254292188905 494.8847781296238Q1115.2099810225711 494.8847781296238 1127.642229616763 485.87393854909226L1127.642229616763 485.87393854909226L1129.60699914936 490.00672963489995Q1122.5270537646568 499.99995398173 1110.8400625793809 506.0975146001348Q1099.1191960573362 512.1950752185396 1087.161202177909 512.1950752185396L1087.161202177909 512.1950752185396ZM1166.4294902171712 510.9755630948586Q1160.3319295987665 510.9755630948586 1152.3034747845336 509.5189236137952L1152.3034747845336 509.5189236137952Q1153.9972416229791 478.2858631128552 1153.9972416229791 447.32380530606656L1153.9972416229791 447.32380530606656Q1153.9972416229791 404.8780083346155 1151.5582173756172 380.99589591253016L1151.5582173756172 380.99589591253016Q1163.5162112550445 376.1178474178063 1178.3874840965982 376.1178474178063L1178.3874840965982 376.1178474178063Q1176.9308446155349 387.56771124569974 1174.9660750829378 423.40781754721223L1174.9660750829378 423.40781754721223Q1181.8088931102589 416.0907448051265 1190.5826053334079 411.82245237224316Q1199.3563175565569 407.5541599393598 1208.4010324738574 407.5541599393598L1208.4010324738574 407.5541599393598Q1236.9240660332841 407.5541599393598 1236.9240660332841 441.22624468766173L1236.9240660332841 441.22624468766173L1236.4498113185193 456.60564758074935L1235.9416812669856 472.9335599033666Q1235.9416812669856 498.5433145006666 1240.8197297617094 509.5189236137952L1240.8197297617094 509.5189236137952Q1234.0107870711574 510.9755630948586 1227.9132264527525 510.9755630948586L1227.9132264527525 510.9755630948586Q1222.0527931917304 510.9755630948586 1213.5162083259636 509.5189236137952L1213.5162083259636 509.5189236137952Q1215.2099751644093 474.89832943596366 1215.2099751644093 445.63003846762075L1215.2099751644093 445.63003846762075Q1215.2099751644093 435.87394147817315 1211.1788100889084 431.6056490452898Q1207.1815203501765 427.33735661240644 1198.136805432876 427.33735661240644L1198.136805432876 427.33735661240644Q1185.2303021239193 427.33735661240644 1175.2032024403202 433.6720445881936L1175.2032024403202 433.6720445881936Q1174.7289477255554 440.7519899728969 1174.7289477255554 453.65849328185374L1174.7289477255554 453.65849328185374Q1174.7289477255554 499.28857190958274 1179.8441235776615 509.5189236137952L1179.8441235776615 509.5189236137952Q1173.272308244492 510.9755630948586 1166.4294902171712 510.9755630948586L1166.4294902171712 510.9755630948586ZM1288.8888326368005 511.72082050377475Q1281.5717598947147 511.72082050377475 1278.624605595819 507.4525280708914Q1275.7113266336924 503.1842356380081 1275.7113266336924 491.70049647334577L1275.7113266336924 491.70049647334577Q1275.7113266336924 484.1462963738776 1276.1855813484572 467.58125669387795L1276.1855813484572 467.58125669387795Q1276.693711399991 449.0175721445123 1276.693711399991 437.0934536018541L1276.693711399991 437.0934536018541Q1276.693711399991 397.7980629499122 1272.0527902626495 380.99589591253016L1272.0527902626495 380.99589591253016Q1278.8617329532017 378.2858689710169 1285.094794918682 377.2018581944116Q1291.3278568841624 376.1178474178063 1298.8820569836305 376.1178474178063L1298.8820569836305 376.1178474178063Q1295.9349026847349 406.33464781567886 1295.9349026847349 462.7032081991541L1295.9349026847349 462.7032081991541Q1295.9349026847349 475.84683886549334 1296.8156614407267 483.0622855972723Q1297.6625448599495 490.24385699228236 1299.5934390557777 494.410523414859Q1301.5582085883748 498.5433145006666 1305.6909996741824 502.9471082806257L1305.6909996741824 502.9471082806257Q1301.7953359457572 507.31702672381573 1297.1544148084158 509.5189236137952Q1292.5473690078434 511.72082050377475 1288.8888326368005 511.72082050377475L1288.8888326368005 511.72082050377475ZM1348.1367966456337 511.72082050377475Q1341.0568512609302 511.72082050377475 1338.1435722988035 507.31702672381573Q1335.2302933366768 502.9471082806257 1335.2302933366768 491.70049647334577L1335.2302933366768 491.70049647334577Q1335.2302933366768 482.68965689281424 1335.7045480514416 466.0907418760457L1335.7045480514416 466.0907418760457Q1336.1788027662064 450.5080869623446 1336.1788027662064 443.19101422025886L1336.1788027662064 443.19101422025886Q1336.1788027662064 433.1639145366599 1334.9592906425255 424.7628310179689Q1333.7397785188446 416.36174749927784 1331.3007542714827 412.703211128235L1331.3007542714827 412.703211128235Q1338.1435722988035 409.99318418672175 1344.376634264284 408.90917341011647Q1350.5758208929956 407.8251626335111 1358.401023686615 407.8251626335111L1358.401023686615 407.8251626335111Q1357.1815115629338 414.8712326814456 1356.300752806942 429.64087951269266Q1355.4538693877194 444.4105263439398 1355.4538693877194 462.7032081991541L1355.4538693877194 462.7032081991541Q1355.4538693877194 476.11784155964466 1356.300752806942 483.16391160757905Q1357.1815115629338 490.24385699228236 1359.0107797484554 494.410523414859Q1360.8400479339768 498.5433145006666 1364.9728390197847 502.9471082806257L1364.9728390197847 502.9471082806257Q1361.0771752913593 507.31702672381573 1356.4362541540177 509.5189236137952Q1351.7953330166765 511.72082050377475 1348.1367966456337 511.72082050377475L1348.1367966456337 511.72082050377475ZM1345.2235176835068 392.44575974042357Q1338.6178270135683 384.38342958942167 1330.352244841953 377.3373595414873L1330.352244841953 377.3373595414873Q1337.6693175840387 368.2926446241869 1345.2235176835068 362.19508400578206L1345.2235176835068 362.19508400578206Q1352.0324603740587 370.4945415141664 1360.3319178824431 377.3373595414873L1360.3319178824431 377.3373595414873Q1353.522975191891 385.6029417131026 1345.2235176835068 392.44575974042357L1345.2235176835068 392.44575974042357ZM1421.3075240664907 512.1950752185396Q1398.3739210739352 512.1950752185396 1384.4850329986798 503.4213629953905L1384.4850329986798 503.4213629953905Q1384.4850329986798 498.7804418580491 1385.4674177649786 494.6476507722414Q1386.4498025312769 490.4809843496648 1388.8888267786388 485.60293585494094L1388.8888267786388 485.60293585494094Q1393.4958725792112 491.70049647334577 1401.1855740257552 495.1219054870062Q1408.8752754722989 498.5433145006666 1417.648987695448 498.5433145006666L1417.648987695448 498.5433145006666Q1440.8197180453863 498.5433145006666 1440.8197180453863 485.60293585494094L1440.8197180453863 485.60293585494094Q1440.8197180453863 480.25063264545236 1435.5690408462042 476.59209627440947Q1430.3522389837913 472.9335599033666 1419.613757228045 468.29263876602516L1419.613757228045 468.29263876602516Q1408.8752754722989 463.41459027130134 1402.3034601391294 459.65442788995176Q1395.697769469191 455.8603901718332 1390.819720974467 449.28857483866364Q1385.9416724797434 442.68288416872514 1385.9416724797434 433.1639145366599L1385.9416724797434 433.1639145366599Q1385.9416724797434 421.7140507087665 1396.0703981736488 414.63410532406317Q1406.1991238675546 407.5541599393598 1422.5270361901719 407.5541599393598L1422.5270361901719 407.5541599393598Q1444.2411270590467 407.5541599393598 1459.6205299521343 413.41459320038217L1459.6205299521343 413.41459320038217Q1459.6205299521343 417.31025692880746 1457.4186330621546 423.7804462516703Q1455.2167361721752 430.25063557453313 1452.0324545158971 435.36581142663937L1452.0324545158971 435.36581142663937Q1443.2587422927481 427.33735661240644 1434.9592847843637 422.56093412798936Q1426.6937026127484 417.8183869803412 1421.0703967091085 417.8183869803412L1421.0703967091085 417.8183869803412Q1415.209963448086 419.03789910402213 1411.5514270770432 422.32380677060695Q1407.8928907060003 425.60971443719177 1407.8928907060003 429.505378165617L1407.8928907060003 429.505378165617Q1407.8928907060003 436.34819619293796 1413.5161966096402 440.4809872787456Q1419.1056271765115 444.6476537013222 1431.0636210559385 450.23708426819326L1431.0636210559385 450.23708426819326Q1441.0568454027684 454.6408780481523 1447.5270347256314 458.4349157662708Q1453.9972240484944 462.1950781476204 1458.50264383876 468.4281401131008Q1463.0080636290259 474.62732674181234 1463.0080636290259 483.4349143017304L1463.0080636290259 483.4349143017304Q1463.0080636290259 497.08667501960326 1452.167955862973 504.64087511907144Q1441.3278480969198 512.1950752185396 1421.3075240664907 512.1950752185396L1421.3075240664907 512.1950752185396ZM1509.8576543804356 511.72082050377475Q1501.321069514669 511.72082050377475 1497.8996605010088 507.4525280708914Q1494.4782514873482 503.1842356380081 1494.4782514873482 492.4457538822619L1494.4782514873482 492.4457538822619Q1494.4782514873482 484.8915537827937 1494.9863815388817 467.81838405126035L1494.9863815388817 467.81838405126035Q1495.4606362536467 449.28857483866364 1495.4606362536467 437.0934536018541L1495.4606362536467 437.0934536018541Q1495.4606362536467 431.2330203408317 1494.9863815388817 425.8468417945742L1494.9863815388817 425.8468417945742Q1485.2302845494341 425.8468417945742 1481.9105015460805 424.52570366058643Q1478.624593879496 423.1706901898298 1478.624593879496 419.74928117616935L1478.624593879496 419.74928117616935Q1494.4782514873482 410.7384415956379 1508.638142256755 395.12191134516786L1508.638142256755 395.12191134516786L1514.4985755177772 395.867168754084Q1515.4470849473068 404.1666262624683 1515.7180876414582 412.94033848561736L1515.7180876414582 412.94033848561736Q1532.0459999640755 412.703211128235 1539.6002000635435 410.9755689530203L1539.6002000635435 410.9755689530203Q1539.6002000635435 416.0907448051265 1538.617815297245 420.02028387032067Q1537.6693058677156 423.91594759874596 1535.4674089777359 428.04873868455365L1535.4674089777359 428.04873868455365Q1528.3874635930324 425.37258707980936 1515.2099575899244 425.13545972242696L1515.2099575899244 425.13545972242696Q1514.4985755177772 436.1110688355555 1514.4985755177772 448.0690627149827L1514.4985755177772 448.0690627149827Q1514.4985755177772 478.0487357554728 1518.15711188882 493.66526600594284L1518.15711188882 493.66526600594284Q1529.3698483593312 492.9200085970267 1536.178791049883 490.98911440119855L1536.178791049883 490.98911440119855L1537.6693058677156 496.57854496806954Q1533.2655120877562 503.4213629953905 1525.4741846309057 507.55415408119813Q1517.6489818372863 511.72082050377475 1509.8576543804356 511.72082050377475L1509.8576543804356 511.72082050377475ZM1595.6977577528673 512.1950752185396Q1576.1855637739723 512.1950752185396 1565.8197107226842 499.39019791988954Q1555.4538576713958 486.58532062123953 1555.4538576713958 462.9403355565365L1555.4538576713958 462.9403355565365Q1555.4538576713958 446.84955059130175 1561.7885456471831 434.2818006500341Q1568.1571089597394 421.7140507087665 1579.4714714405568 414.63410532406317Q1590.8197092581436 407.5541599393598 1605.4538547423151 407.5541599393598L1605.4538547423151 407.5541599393598Q1624.9660487212104 407.5541599393598 1635.0947744151163 420.3590372380099Q1645.223500109022 433.1639145366599 1645.223500109022 458.06228706181275L1645.223500109022 458.06228706181275Q1632.283121463296 461.21269338132186 1613.9904396080817 463.550091618377Q1595.6977577528673 465.8536145186633 1577.9132059491867 466.361744570197L1577.9132059491867 466.361744570197Q1579.3698454302503 481.2330174117509 1586.0771621104955 487.94033409199614Q1592.7844787907406 494.6476507722414 1605.6909820996975 494.6476507722414L1605.6909820996975 494.6476507722414Q1615.7180817832964 494.6476507722414 1624.5934200167524 492.31025253518624Q1633.502633586977 490.00672963489995 1639.8373215627644 485.87393854909226L1639.8373215627644 485.87393854909226L1641.5649637379788 490.4809843496648Q1634.010763638511 500.2370813391124 1621.4430136972433 506.23301594721045Q1608.8752637559755 512.1950752185396 1595.6977577528673 512.1950752185396L1595.6977577528673 512.1950752185396ZM1577.4050758976532 458.53654177657756Q1589.6001971344626 457.31702965289657 1601.3210636565072 454.5053767010766Q1613.0080548417834 451.7275990860255 1619.850872869104 448.3061900723651L1619.850872869104 448.3061900723651Q1619.6137455117218 435.36581142663937 1612.398298779943 427.0663539182551Q1605.2167273849327 418.8007717466397 1594.0039909144216 418.8007717466397L1594.0039909144216 418.8007717466397Q1586.4497908149538 423.1706901898298 1581.9104956879191 433.909171945576Q1577.4050758976532 444.6476537013222 1577.4050758976532 458.53654177657756L1577.4050758976532 458.53654177657756ZM1694.2411124136424 510.9755630948586Q1688.1435517952377 510.9755630948586 1680.0812216442357 509.5189236137952L1680.0812216442357 509.5189236137952Q1681.8088638194504 485.1286811401761 1681.8088638194504 457.55415701027897L1681.8088638194504 457.55415701027897Q1681.8088638194504 444.1395236497885 1680.9619804002275 437.0934536018541Q1680.0812216442357 430.01350821715073 1678.2519534587145 425.8468417945742Q1676.4226852731929 421.7140507087665 1672.2898941873855 417.31025692880746L1672.2898941873855 417.31025692880746Q1676.1855579158105 412.94033848561736 1680.826479053152 410.7384415956379Q1685.4674001904937 408.53654470565834 1689.125936561536 408.53654470565834L1689.125936561536 408.53654470565834Q1703.0148246367917 408.53654470565834 1703.7600820457078 426.5920992034903L1703.7600820457078 426.5920992034903Q1710.0947700214947 418.8007717466397 1717.2763414165047 413.78722190484024Q1724.4917881482838 408.7736720630408 1733.7397550861979 406.33464781567886L1733.7397550861979 406.33464781567886Q1735.4673972614123 410.26418688087307 1736.7885353954002 417.5812596229588Q1738.1435488661568 424.89833236504455 1738.1435488661568 430.99589298344927L1738.1435488661568 430.99589298344927Q1735.2302699040301 430.4877629319156 1729.8440913577724 430.4877629319156L1729.8440913577724 430.4877629319156Q1722.0527639009224 430.4877629319156 1714.9728185162185 432.317031117437Q1707.8928731315154 434.1462993029584 1703.5229546883252 436.8224509077028L1703.5229546883252 436.8224509077028L1703.2519519941739 444.4105263439398Q1702.777697279409 460.50131130917464 1702.777697279409 472.9335599033666L1702.777697279409 472.9335599033666Q1702.777697279409 498.5433145006666 1707.6557457741333 509.5189236137952L1707.6557457741333 509.5189236137952Q1700.3386730320472 510.9755630948586 1694.2411124136424 510.9755630948586L1694.2411124136424 510.9755630948586Z " fill="#2b7a77" transform="matrix(0.5034106811062942,0,0,0.5034106811062942,0,79.91131233020957)"/></g></svg>